<?xml version="1.0" encoding="UTF-8"?>
<svg id="Layer_1" data-name="Layer 1" xmlns="http://www.w3.org/2000/svg" viewBox="0 0 100.48 130.34">
  <defs>
    <style>
      .cls-1 {
        fill: #fff;
      }
    </style>
  </defs>
  <path class="cls-1" d="M100.48,76.4c-.24-.34-.02-.58-.02-.97l-.02-42.36-36.02,44.26c-.35.43-1.12,1.15-1.35,1.62-.06.13-.37.24-.33.45l-12.05,14.66-.65.82-20.54,25.13-8.14-.08,35.69-45.34,24.17-30.41c.32-.41.36-.79.82-1.07l18.43-23.3-20.98-.04L95.09,0h-39.85s.02,10.28.02,10.28l18.49.03c-.6.84-1.15,1.58-1.76,2.35l-5.69,7.14h-21.81s-.3,0-.3,0c-1.47,0-2.96.15-4.41.06l-.44-.03h-.32s-29.52-.04-29.52-.04v10.32s11.08.01,11.08.01c.72-.03,1.33-.06,2.04-.05l21.28.03c4.53,0,9.68-.27,13.88.46-4.27,5.53-13.4,16.9-17.67,22.53.57-.75-2.48,3.06-1.69,2.14l-1.04,1.21-11.79,14.93c-.28.35-.45.62-.72.96l-4.92,6.03v-17.7s0-20.76,0-20.76l-10.33-.05v68.36s16.93-21.41,16.93-21.41c.28-.35.21-.74.72-.87l17.84-22.69,4.85-6.07c.11-.14.2-.35.32-.47.7-.75,1.39-1.57,1.98-2.48.2-.3.29-.59.55-.85l.9-.93,17.63-22.3,7.84.06-25.57,32.42L0,130.27l21.21.05,48.59.02,2.35-.1,14.2-17.62-8.02-6.49-11.15,13.81-2.9.06h-21.37s25.81-31.82,25.81-31.82c.17-.08.3-.22.46-.42l7.28-8.89c.02-.53.44-.62.74-.97l12.96-15.78-.08,27.43c-.12.32-.55.61-.78.9l-3.12,3.86,8.02,6.46,3.94-4.89,2.35-2.86-.03-6.17c0-.42.01-.75.01-1.09l.04-9.34Z"/>
</svg>